<?xml version="1.0" encoding="UTF-8"?>
<svg width="412px" height="412px" viewBox="0 0 412 412" version="1.1" xmlns="http://www.w3.org/2000/svg" xmlns:xlink="http://www.w3.org/1999/xlink">
    <title>leanplum-square-logo</title>
    <g id="leanplum-square-logo" stroke="none" stroke-width="1" fill="none" fill-rule="evenodd">
        <rect id="Rectangle" fill="#000000" x="0" y="0" width="412" height="412"></rect>
        <g id="logo" transform="translate(90.000000, 125.000000)" fill="#FFFFFF" fill-rule="nonzero">
            <polygon id="Shape" points="101 66 155.424283 0 162 0 162 66 152.468617 66 152.468617 17.4234246 112.626754 66"></polygon>
            <polygon id="Shape" points="9.60653951 57.004808 39 57.004808 39 66 0 66 0 0 9.60653951 0"></polygon>
            <polygon id="Shape" points="91 25.8516572 91 34.8468492 61.5119878 34.8468492 61.5119878 57.004808 91 57.004808 91 66 52 66 52 0 91 0 91 8.80902622 61.5119878 8.80902622 61.5119878 25.8516572"></polygon>
            <polygon id="Shape" points="185.50751 17.4234246 185.50751 66 176 66 176 0 182.750417 0 222.49249 48.3904096 222.49249 0 232 0 232 66 225.440753 66"></polygon>
            <path d="M24.2812502,121.649928 C28.7812502,121.649928 31.21875,120.51363 32.9062501,118.714491 C34.40625,117.010043 35.53125,114.832138 35.53125,112.180775 C35.53125,109.529412 34.40625,107.351506 32.9062501,105.647059 C31.21875,103.753228 28.7812502,102.711621 24.2812502,102.711621 L9.28125022,102.711621 L9.28125022,121.555237 L24.2812502,121.555237 L24.2812502,121.649928 Z M9.3750003,130.740316 L9.3750003,160 L0,160 L0,94 L24.84375,94 C31.1249999,94 35.3437499,95.5150646 38.5312499,98.3558106 C42.375,101.764706 45,106.783357 45,112.370158 C45,117.956958 42.5625002,123.070301 38.5312499,126.384505 C35.2499998,129.225251 31.3125001,130.740316 24.84375,130.740316 L9.3750003,130.740316 Z" id="Shape"></path>
            <polygon id="Shape" points="64.5130245 151.004808 94 151.004808 94 160 55 160 55 94 64.5130245 94"></polygon>
            <path d="M108.827586,152.117066 C104.655172,147.486601 102,141.438646 102,132.555712 L102,94 L111.482759,94 L111.482759,133.217207 C111.482759,139.454161 113,143.328632 115.655173,146.25811 C118.974138,149.943583 123.905172,152.211566 129.5,152.211566 C135.094828,152.211566 139.931034,150.038082 143.344827,146.25811 C146,143.328632 147.517241,139.454161 147.517241,133.217207 L147.517241,94 L157,94 L157,132.744711 C157,141.627645 154.344828,147.6756 150.172414,152.306065 C145.146552,157.787024 137.844828,161 129.594827,161 C121.344828,161 113.853448,157.503526 108.827586,152.117066" id="Shape"></path>
            <polygon id="Shape" points="202.900566 145.796397 196.103712 145.796397 176.572914 115.497917 176.572914 160 167 160 167 94 173.796854 94 199.452948 134.152574 225.301527 94 232 94 232 160 222.427086 160 222.427086 115.497917"></polygon>
        </g>
    </g>
</svg>